<svg xmlns="http://www.w3.org/2000/svg" viewBox="0 0 64 64" fill="none">
  <rect width="64" height="64" rx="14" fill="#080b14"/>
  <path d="M8 32 C 18 17, 46 17, 56 32 C 46 47, 18 47, 8 32 Z" stroke="#f5b62c" stroke-width="2.6" stroke-linejoin="round"/>
  <circle cx="32" cy="32" r="11" stroke="#38e1d0" stroke-width="1.2" stroke-dasharray="5 5" opacity="0.7"/>
  <g stroke="#38e1d0" stroke-width="1.3" stroke-linecap="round" opacity="0.9">
    <path d="M32 27 L32 21 L35 18"/><path d="M37 32 L44 32 L47 29"/>
    <path d="M27 32 L20 32 L17 29"/><path d="M32 37 L32 43 L29 46"/>
  </g>
  <g fill="#f5b62c"><circle cx="35" cy="18" r="1.6"/><circle cx="47" cy="29" r="1.6"/><circle cx="17" cy="29" r="1.6"/><circle cx="29" cy="46" r="1.6"/></g>
  <circle cx="32" cy="32" r="5.6" fill="#f5b62c"/>
  <circle cx="32" cy="32" r="2" fill="#080b14"/>
</svg>
